<svg width="222" height="195" viewBox="0 0 222 195" fill="none" xmlns="http://www.w3.org/2000/svg">
<mask id="path-1-outside-1_882_11158" maskUnits="userSpaceOnUse" x="0" y="0" width="222" height="195" fill="black">
<rect fill="white" width="222" height="195"/>
<path d="M117.038 4C140.527 4.00014 160.693 18.22 169.4 38.5205C169.636 38.5171 169.871 38.5156 170.107 38.5156C196.557 38.5156 217.999 59.9577 217.999 86.4072C217.999 111.792 198.248 132.564 173.275 134.194C173.747 136.89 173.993 139.664 173.993 142.495C173.993 168.945 152.551 190.387 126.102 190.387C113.883 190.387 102.736 185.808 94.2754 178.277C88.2021 181.064 81.4466 182.62 74.3271 182.62C47.8778 182.62 26.4368 161.179 26.4365 134.729C26.4365 133.637 26.473 132.553 26.5449 131.479C12.6411 117.992 4 99.1097 4 78.209C4.00018 37.2243 37.2252 4 78.21 4C85.4057 4.00003 92.3619 5.02502 98.9414 6.93555C104.627 5.03168 110.712 4 117.038 4Z"/>
</mask>
<path d="M117.038 4C140.527 4.00014 160.693 18.22 169.4 38.5205C169.636 38.5171 169.871 38.5156 170.107 38.5156C196.557 38.5156 217.999 59.9577 217.999 86.4072C217.999 111.792 198.248 132.564 173.275 134.194C173.747 136.89 173.993 139.664 173.993 142.495C173.993 168.945 152.551 190.387 126.102 190.387C113.883 190.387 102.736 185.808 94.2754 178.277C88.2021 181.064 81.4466 182.62 74.3271 182.62C47.8778 182.62 26.4368 161.179 26.4365 134.729C26.4365 133.637 26.473 132.553 26.5449 131.479C12.6411 117.992 4 99.1097 4 78.209C4.00018 37.2243 37.2252 4 78.21 4C85.4057 4.00003 92.3619 5.02502 98.9414 6.93555C104.627 5.03168 110.712 4 117.038 4Z" fill="white"/>
<path d="M117.038 4L117.038 0H117.038V4ZM169.4 38.5205L165.724 40.0973L166.78 42.5589L169.458 42.5201L169.4 38.5205ZM170.107 38.5156V34.5156H170.107L170.107 38.5156ZM217.999 86.4072H221.999H217.999ZM173.275 134.194L173.015 130.203L168.568 130.493L169.335 134.883L173.275 134.194ZM173.993 142.495H177.993V142.495L173.993 142.495ZM126.102 190.387L126.102 194.387H126.102V190.387ZM94.2754 178.277L96.9349 175.289L94.9827 173.552L92.6073 174.642L94.2754 178.277ZM74.3271 182.62L74.3271 186.62H74.3271V182.62ZM26.4365 134.729H22.4365V134.73L26.4365 134.729ZM26.5449 131.479L30.536 131.747L30.6598 129.898L29.33 128.608L26.5449 131.479ZM4 78.209L0 78.209V78.209H4ZM78.21 4L78.21 0H78.21V4ZM98.9414 6.93555L97.826 10.7769L99.0263 11.1254L100.212 10.7285L98.9414 6.93555ZM117.038 4L117.038 8C138.871 8.00013 157.625 21.2143 165.724 40.0973L169.4 38.5205L173.076 36.9437C163.761 15.2256 142.183 0.000148296 117.038 0L117.038 4ZM169.4 38.5205L169.458 42.5201C169.672 42.517 169.888 42.5156 170.107 42.5156L170.107 38.5156L170.107 34.5156C169.855 34.5156 169.6 34.5172 169.342 34.5209L169.4 38.5205ZM170.107 38.5156V42.5156C194.348 42.5156 213.999 62.1668 213.999 86.4072H217.999H221.999C221.999 57.7486 198.766 34.5156 170.107 34.5156V38.5156ZM217.999 86.4072H213.999C213.999 109.67 195.898 128.709 173.015 130.203L173.275 134.194L173.536 138.186C200.598 136.419 221.999 113.914 221.999 86.4072H217.999ZM173.275 134.194L169.335 134.883C169.767 137.354 169.993 139.897 169.993 142.495L173.993 142.495L177.993 142.495C177.993 139.431 177.726 136.427 177.216 133.506L173.275 134.194ZM173.993 142.495H169.993C169.993 166.736 150.342 186.387 126.102 186.387V190.387V194.387C154.76 194.387 177.993 171.154 177.993 142.495H173.993ZM126.102 190.387L126.102 186.387C114.902 186.387 104.692 182.194 96.9349 175.289L94.2754 178.277L91.6159 181.265C100.78 189.422 112.865 194.387 126.102 194.387L126.102 190.387ZM94.2754 178.277L92.6073 174.642C87.0457 177.194 80.8582 178.62 74.3271 178.62V182.62V186.62C82.0351 186.62 89.3585 184.934 95.9435 181.913L94.2754 178.277ZM74.3271 182.62L74.3272 178.62C50.0869 178.62 30.4367 158.97 30.4365 134.729L26.4365 134.729L22.4365 134.73C22.4368 163.388 45.6686 186.62 74.3271 186.62L74.3271 182.62ZM26.4365 134.729H30.4365C30.4365 133.726 30.47 132.732 30.536 131.747L26.5449 131.479L22.5539 131.212C22.4759 132.375 22.4365 133.548 22.4365 134.729H26.4365ZM26.5449 131.479L29.33 128.608C16.1706 115.843 8 97.9838 8 78.209H4H0C0 100.236 9.11157 120.141 23.7598 134.351L26.5449 131.479ZM4 78.209L8 78.209C8.00017 39.4335 39.4343 8 78.21 8V4V0C35.0161 0 0.00019002 35.0151 0 78.209L4 78.209ZM78.21 4L78.2099 8C85.0241 8.00003 91.6049 8.97043 97.826 10.7769L98.9414 6.93555L100.057 3.09422C93.1189 1.07961 85.7873 2.98023e-05 78.21 0L78.21 4ZM98.9414 6.93555L100.212 10.7285C105.493 8.95998 111.149 8 117.038 8V4V0C110.275 0 103.761 1.10339 97.6712 3.14257L98.9414 6.93555Z" fill="url(#paint0_linear_882_11158)" mask="url(#path-1-outside-1_882_11158)"/>
<defs>
<linearGradient id="paint0_linear_882_11158" x1="4" y1="46.2282" x2="217.999" y2="148.159" gradientUnits="userSpaceOnUse">
<stop offset="0.197115" stop-color="#F9DFE9"/>
<stop offset="1" stop-color="#FFAFC8"/>
</linearGradient>
</defs>
</svg>
